<?xml version="1.0" encoding="utf-8"?>
<!-- Generator: Adobe Illustrator 16.0.0, SVG Export Plug-In . SVG Version: 6.00 Build 0)  -->
<!DOCTYPE svg PUBLIC "-//W3C//DTD SVG 1.1//EN" "http://www.w3.org/Graphics/SVG/1.1/DTD/svg11.dtd">
<svg version="1.1" xmlns="http://www.w3.org/2000/svg" xmlns:xlink="http://www.w3.org/1999/xlink" x="0px" y="0px" width="72px"
	 height="72px" viewBox="0 0 72 72" enable-background="new 0 0 72 72" xml:space="preserve">
<g id="Layer_5" display="none">
	<rect x="-7.667" y="-5.667" display="inline" fill="#7F1D1E" width="89.333" height="86"/>
</g>
<g id="Layer_1">
	<circle fill="#F1E912" cx="46.027" cy="25.808" r="7.785"/>
	<rect x="45.343" y="11.52" fill="#E8E617" width="0.981" height="4.909"/>
	
		<rect x="41.322" y="12.278" transform="matrix(0.94 -0.3412 0.3412 0.94 -2.5177 15.1498)" fill="#E8E617" width="0.982" height="4.909"/>
	
		<rect x="37.802" y="14.365" transform="matrix(0.766 -0.6428 0.6428 0.766 -1.8522 28.5517)" fill="#E8E617" width="0.983" height="4.909"/>
	
		<rect x="35.211" y="17.531" transform="matrix(0.4996 -0.8663 0.8663 0.4996 0.5529 40.9287)" fill="#E8E617" width="0.981" height="4.91"/>
	
		<rect x="33.857" y="21.392" transform="matrix(0.1735 -0.9848 0.9848 0.1735 4.9035 53.5358)" fill="#E8E617" width="0.982" height="4.909"/>
	
		<rect x="33.906" y="25.483" transform="matrix(-0.174 -0.9847 0.9847 -0.174 12.8696 66.6706)" fill="#E8E617" width="0.982" height="4.909"/>
	
		<rect x="35.35" y="29.311" transform="matrix(-0.5001 -0.866 0.866 -0.5001 26.2573 78.689)" fill="#E8E617" width="0.982" height="4.91"/>
	
		<rect x="38.017" y="32.414" transform="matrix(-0.766 -0.6428 0.6428 -0.766 45.5923 86.3321)" fill="#E8E617" width="0.983" height="4.909"/>
	
		<rect x="41.585" y="34.417" transform="matrix(-0.9398 -0.3416 0.3416 -0.9398 69.0236 85.8998)" fill="#E8E617" width="0.982" height="4.91"/>
	<rect x="45.623" y="35.08" fill="#E8E617" width="0.981" height="4.91"/>
	
		<rect x="49.644" y="34.322" transform="matrix(-0.9397 0.3419 -0.3419 -0.9397 109.8218 54.1923)" fill="#E8E617" width="0.981" height="4.909"/>
	
		<rect x="53.163" y="32.234" transform="matrix(-0.7661 0.6427 -0.6427 -0.7661 117.052 26.7784)" fill="#E8E617" width="0.982" height="4.909"/>
	
		<rect x="55.755" y="29.068" transform="matrix(-0.5003 0.8658 -0.8658 -0.5003 111.6797 -1.4062)" fill="#E8E617" width="0.982" height="4.909"/>
	
		<rect x="57.108" y="25.207" transform="matrix(-0.173 0.9849 -0.9849 -0.173 94.8098 -24.2822)" fill="#E8E617" width="0.982" height="4.91"/>
	
		<rect x="57.06" y="21.116" transform="matrix(0.1741 0.9847 -0.9847 0.1741 70.7437 -37.2045)" fill="#E8E617" width="0.982" height="4.91"/>
	
		<rect x="55.615" y="17.288" transform="matrix(0.5001 0.866 -0.866 0.5001 45.1442 -38.7166)" fill="#E8E617" width="0.982" height="4.91"/>
	
		<rect x="52.947" y="14.186" transform="matrix(0.7661 0.6427 -0.6427 0.7661 23.1944 -30.4538)" fill="#E8E617" width="0.982" height="4.909"/>
	
		<rect x="49.38" y="12.181" transform="matrix(0.9398 0.3416 -0.3416 0.9398 8.0005 -16.1566)" fill="#E8E617" width="0.982" height="4.91"/>
</g>
<g id="Layer_2">
	<g>
		<path opacity="0.1" d="M64.034,62.078H8.517c0,0-7.52-1.097-7.905-8.783c0,0-2.69-11.401,10.89-13.451
			c0,0-5.381-16.015,12.171-22.548c0,0,14.733-4.356,21.908,11.018c0,0,6.405-4.741,13.707-0.128c0,0,6.406,4.355,4.356,12.684
			c0,0,8.199,1.153,8.456,11.018C72.101,51.886,72.878,58.69,64.034,62.078z"/>
		<path fill="#FFFFFF" d="M63.639,60.892H8.122c0,0-7.521-1.097-7.905-8.784c0,0-2.69-11.401,10.89-13.45
			c0,0-5.381-16.015,12.171-22.549c0,0,14.733-4.356,21.907,11.018c0,0,6.406-4.74,13.709-0.128c0,0,6.405,4.355,4.355,12.684
			c0,0,8.199,1.153,8.455,11.018C71.704,50.699,72.482,57.504,63.639,60.892z"/>
	</g>
</g>
<g id="Layer_6" display="none">
	<path display="inline" opacity="0.3" fill="#FFFFFF" d="M6.918,40.318c0,0,9.621-7.814,15.536-5.767
		c1.711,0.593,0.876,0.031,1.169-0.033c0,0,4.075,3.864,5.547-1.435c0,0,5.3-8.833,10.154-1.485
		c0.268,0.406,0.471-0.118,0.471-0.118s9.074-4.714,16.38,9.663c0,0,1.554,1.361,5.381,1.067c0.173-0.014,2.783,0.361,2.944,0.294
		c4.832-2.003,3.82,8.539-0.919,10.531c0,0-56.788,6.84-57.628,1.069C5.954,54.105,2.206,40.2,6.918,40.318z"/>
</g>
<g id="Layer_3" display="none">
	<g display="inline">
		<circle fill="#F1E912" cx="36.096" cy="36.096" r="13.938"/>
		<rect x="34.871" y="10.514" fill="#E8E617" width="1.757" height="8.79"/>
		
			<rect x="27.672" y="11.873" transform="matrix(0.94 -0.3411 0.3411 0.94 -3.8366 10.7148)" fill="#E8E617" width="1.758" height="8.789"/>
		
			<rect x="21.371" y="15.61" transform="matrix(0.7661 -0.6427 0.6427 0.7661 -7.6527 18.978)" fill="#E8E617" width="1.76" height="8.789"/>
		
			<rect x="16.73" y="21.277" transform="matrix(0.4995 -0.8663 0.8663 0.4995 -13.4268 28.1019)" fill="#E8E617" width="1.757" height="8.79"/>
		
			<rect x="14.306" y="28.189" transform="matrix(0.1733 -0.9849 0.9849 0.1733 -19.5374 41.8924)" fill="#E8E617" width="1.758" height="8.789"/>
		
			<rect x="14.394" y="35.515" transform="matrix(-0.1738 -0.9848 0.9848 -0.1738 -21.3728 61.8882)" fill="#E8E617" width="1.758" height="8.789"/>
		
			<rect x="16.981" y="42.368" transform="matrix(-0.5002 -0.8659 0.8659 -0.5002 -13.7006 85.6172)" fill="#E8E617" width="1.758" height="8.79"/>
		
			<rect x="21.755" y="47.923" transform="matrix(-0.7659 -0.643 0.643 -0.7659 6.3303 106.9407)" fill="#E8E617" width="1.76" height="8.79"/>
		
			<rect x="28.143" y="51.51" transform="matrix(-0.9398 -0.3416 0.3416 -0.9398 37.1998 118.3615)" fill="#E8E617" width="1.758" height="8.791"/>
		<rect x="35.373" y="52.696" fill="#E8E617" width="1.757" height="8.79"/>
		
			<rect x="42.571" y="51.339" transform="matrix(-0.9398 0.3418 -0.3418 -0.9398 103.3308 93.26)" fill="#E8E617" width="1.757" height="8.788"/>
		
			<rect x="48.872" y="47.601" transform="matrix(-0.7658 0.643 -0.643 -0.7658 121.2861 59.8256)" fill="#E8E617" width="1.757" height="8.79"/>
		
			<rect x="53.513" y="41.933" transform="matrix(-0.5002 0.8659 -0.8659 -0.5002 121.7139 22.4028)" fill="#E8E617" width="1.757" height="8.79"/>
		
			<rect x="55.935" y="35.021" transform="matrix(-0.1732 0.9849 -0.9849 -0.1732 105.4758 -9.7122)" fill="#E8E617" width="1.759" height="8.79"/>
		
			<rect x="55.849" y="27.695" transform="matrix(0.1739 0.9848 -0.9848 0.1739 78.4612 -29.3552)" fill="#E8E617" width="1.757" height="8.79"/>
		
			<rect x="53.262" y="20.842" transform="matrix(0.4997 0.8662 -0.8662 0.4997 48.9454 -34.2708)" fill="#E8E617" width="1.759" height="8.79"/>
		
			<rect x="48.486" y="15.288" transform="matrix(0.7658 0.643 -0.643 0.7658 24.2148 -27.1337)" fill="#E8E617" width="1.757" height="8.788"/>
		
			<rect x="42.099" y="11.699" transform="matrix(0.9398 0.3416 -0.3416 0.9398 8.0834 -13.7137)" fill="#E8E617" width="1.758" height="8.79"/>
	</g>
</g>
<g id="Layer_4" display="none">
	<circle display="inline" fill="#F1E912" cx="46.214" cy="23.934" r="7.862"/>
	<rect x="45.522" y="9.504" display="inline" fill="#E8E617" width="0.992" height="4.957"/>
	
		<rect x="41.464" y="10.269" transform="matrix(0.9396 -0.3421 0.3421 0.9396 -1.8294 15.1252)" display="inline" fill="#E8E617" width="0.99" height="4.958"/>
	
		<rect x="37.91" y="12.377" transform="matrix(0.7664 -0.6424 0.6424 0.7664 -0.5708 28.1433)" display="inline" fill="#E8E617" width="0.993" height="4.958"/>
	
		<rect x="35.291" y="15.574" transform="matrix(0.4999 -0.8661 0.8661 0.4999 2.2607 40.0214)" display="inline" fill="#E8E617" width="0.992" height="4.959"/>
	
		<rect x="33.924" y="19.474" transform="matrix(0.1729 -0.9849 0.9849 0.1729 6.8473 52.0595)" display="inline" fill="#E8E617" width="0.991" height="4.959"/>
	
		<rect x="33.973" y="23.605" transform="matrix(-0.1741 -0.9847 0.9847 -0.1741 14.7856 64.5685)" display="inline" fill="#E8E617" width="0.993" height="4.957"/>
	
		<rect x="35.432" y="27.471" transform="matrix(-0.5007 -0.8656 0.8656 -0.5007 27.9915 76.046)" display="inline" fill="#E8E617" width="0.993" height="4.959"/>
	
		<rect x="38.126" y="30.604" transform="matrix(-0.7668 -0.6418 0.6418 -0.7668 47.0049 83.2436)" display="inline" fill="#E8E617" width="0.992" height="4.96"/>
	
		<rect x="41.728" y="32.628" transform="matrix(-0.9397 -0.3419 0.3419 -0.9397 69.8995 82.536)" display="inline" fill="#E8E617" width="0.992" height="4.957"/>
	<rect x="45.807" y="33.297" display="inline" fill="#E8E617" width="0.991" height="4.958"/>
	
		<rect x="49.866" y="32.532" transform="matrix(-0.9403 0.3403 -0.3403 -0.9403 109.6331 50.7909)" display="inline" fill="#E8E617" width="0.993" height="4.957"/>
	
		<rect x="53.42" y="30.422" transform="matrix(-0.7662 0.6426 -0.6426 -0.7662 116.3689 23.4638)" display="inline" fill="#E8E617" width="0.992" height="4.958"/>
	
		<rect x="56.039" y="27.225" transform="matrix(-0.4999 0.8661 -0.8661 -0.4999 110.5259 -4.4068)" display="inline" fill="#E8E617" width="0.992" height="4.959"/>
	
		<rect x="57.406" y="23.327" transform="matrix(-0.1744 0.9847 -0.9847 -0.1744 93.4078 -26.7093)" display="inline" fill="#E8E617" width="0.991" height="4.957"/>
	
		<rect x="57.357" y="19.196" transform="matrix(0.1733 0.9849 -0.9849 0.1733 69.1717 -39.0595)" display="inline" fill="#E8E617" width="0.992" height="4.957"/>
	
		<rect x="55.898" y="15.328" transform="matrix(0.4996 0.8662 -0.8662 0.4996 43.643 -39.9391)" display="inline" fill="#E8E617" width="0.991" height="4.959"/>
	
		<rect x="53.204" y="12.196" transform="matrix(0.7662 0.6426 -0.6426 0.7662 21.9852 -31.0769)" display="inline" fill="#E8E617" width="0.992" height="4.958"/>
	
		<rect x="49.601" y="10.172" transform="matrix(0.9399 0.3414 -0.3414 0.9399 7.3286 -16.3423)" display="inline" fill="#E8E617" width="0.991" height="4.959"/>
	<path display="inline" opacity="0.1" d="M64.399,60.563H8.334c0,0-7.595-1.107-7.984-8.87c0,0-2.717-11.515,10.998-13.584
		c0,0-5.434-16.173,12.292-22.773c0,0,14.879-4.398,22.124,11.127c0,0,6.47-4.787,13.843-0.129c0,0,6.471,4.398,4.4,12.809
		c0,0,8.28,1.165,8.539,11.127C72.546,50.27,73.332,57.143,64.399,60.563z"/>
	<path display="inline" fill="#FFFFFF" d="M64.001,59.364H7.934c0,0-7.595-1.107-7.983-8.87c0,0-2.717-11.516,10.997-13.585
		c0,0-5.434-16.173,12.293-22.771c0,0,14.877-4.399,22.123,11.127c0,0,6.47-4.789,13.845-0.13c0,0,6.469,4.399,4.399,12.809
		c0,0,8.278,1.164,8.538,11.127C72.146,49.071,72.933,55.943,64.001,59.364z"/>
	<path display="inline" fill="#FFFFFF" d="M21.499,49.777h36.071c0,0,4.887-0.787,5.135-6.295c0,0,1.749-8.169-7.075-9.639
		c0,0,3.498-11.476-7.908-16.157c0,0-9.571-3.123-14.233,7.895c0,0-4.162-3.397-8.906-0.092c0,0-4.162,3.122-2.831,9.088
		c0,0-5.327,0.827-5.493,7.895C16.257,42.472,15.752,47.35,21.499,49.777z"/>
</g>
</svg>
