<?xml version="1.0" encoding="utf-8"?>
<!-- Generator: Adobe Illustrator 16.0.0, SVG Export Plug-In . SVG Version: 6.00 Build 0)  -->
<!DOCTYPE svg PUBLIC "-//W3C//DTD SVG 1.1//EN" "http://www.w3.org/Graphics/SVG/1.1/DTD/svg11.dtd">
<svg version="1.1" xmlns="http://www.w3.org/2000/svg" xmlns:xlink="http://www.w3.org/1999/xlink" x="0px" y="0px" width="72px"
	 height="67.5px" viewBox="0 0 72 67.5" enable-background="new 0 0 72 67.5" xml:space="preserve">
<g id="Layer_2" display="none">
	<rect x="-1.417" y="-1.167" display="inline" fill="#7F1D1E" width="74.333" height="93.5"/>
</g>
<g id="Day_-_Light">
	<circle fill="#F1E912" cx="36.293" cy="32.214" r="16.73"/>
	<rect x="34.821" y="1.505" fill="#E8E617" width="2.11" height="10.551"/>
	
		<rect x="26.181" y="3.135" transform="matrix(0.9397 -0.3419 0.3419 0.9397 -1.2342 9.8198)" fill="#E8E617" width="2.111" height="10.55"/>
	
		<rect x="18.619" y="7.622" transform="matrix(0.7658 -0.6431 0.6431 0.7658 -3.6865 15.6726)" fill="#E8E617" width="2.109" height="10.551"/>
	
		<rect x="13.047" y="14.426" transform="matrix(0.5003 -0.8659 0.8659 0.5003 -10.011 22.0556)" fill="#E8E617" width="2.11" height="10.55"/>
	
		<rect x="10.138" y="22.724" transform="matrix(0.1735 -0.9848 0.9848 0.1735 -18.3238 34.1629)" fill="#E8E617" width="2.11" height="10.551"/>
	
		<rect x="10.242" y="31.516" transform="matrix(-0.1735 -0.9848 0.9848 -0.1735 -22.9752 54.3025)" fill="#E8E617" width="2.11" height="10.551"/>
	
		<rect x="13.348" y="39.743" transform="matrix(-0.4997 -0.8662 0.8662 -0.4997 -17.393 79.9906)" fill="#E8E617" width="2.111" height="10.55"/>
	
		<rect x="19.08" y="46.411" transform="matrix(-0.7662 -0.6426 0.6426 -0.7662 2.3465 104.2269)" fill="#E8E617" width="2.111" height="10.551"/>
	
		<rect x="26.746" y="50.717" transform="matrix(-0.9397 -0.3419 0.3419 -0.9397 34.7824 118.1157)" fill="#E8E617" width="2.111" height="10.551"/>
	<rect x="35.425" y="52.141" fill="#E8E617" width="2.109" height="10.551"/>
	
		<rect x="44.065" y="50.51" transform="matrix(-0.9397 0.3419 -0.3419 -0.9397 106.5965 92.7818)" fill="#E8E617" width="2.111" height="10.552"/>
	
		<rect x="51.627" y="46.024" transform="matrix(-0.7662 0.6426 -0.6426 -0.7662 126.0134 56.7474)" fill="#E8E617" width="2.111" height="10.55"/>
	
		<rect x="57.199" y="39.221" transform="matrix(-0.5003 0.8659 -0.8659 -0.5003 125.9251 16.3154)" fill="#E8E617" width="2.11" height="10.55"/>
	
		<rect x="60.109" y="30.923" transform="matrix(-0.1735 0.9848 -0.9848 -0.1735 107.4273 -17.7551)" fill="#E8E617" width="2.11" height="10.551"/>
	
		<rect x="60.004" y="22.13" transform="matrix(0.1735 0.9848 -0.9848 0.1735 77.4518 -37.4834)" fill="#E8E617" width="2.11" height="10.551"/>
	
		<rect x="56.898" y="13.904" transform="matrix(0.4997 0.8662 -0.8662 0.4997 45.605 -40.6035)" fill="#E8E617" width="2.111" height="10.55"/>
	
		<rect x="51.166" y="7.235" transform="matrix(0.766 0.6429 -0.6429 0.766 20.2633 -30.6436)" fill="#E8E617" width="2.11" height="10.55"/>
	
		<rect x="43.499" y="2.93" transform="matrix(0.9397 0.3421 -0.3421 0.9397 5.4945 -14.7459)" fill="#E8E617" width="2.11" height="10.55"/>
</g>
<g id="Day_-_Partly_Cloudy" display="none">
	<circle display="inline" fill="#F1E912" cx="46.027" cy="18.803" r="7.785"/>
	<rect x="45.343" y="4.515" display="inline" fill="#E8E617" width="0.981" height="4.909"/>
	
		<rect x="41.322" y="5.273" transform="matrix(0.94 -0.3412 0.3412 0.94 -0.1277 14.7294)" display="inline" fill="#E8E617" width="0.982" height="4.909"/>
	
		<rect x="37.802" y="7.36" transform="matrix(0.766 -0.6428 0.6428 0.766 2.6507 26.9127)" display="inline" fill="#E8E617" width="0.983" height="4.909"/>
	
		<rect x="35.211" y="10.526" transform="matrix(0.4996 -0.8663 0.8663 0.4996 6.621 37.4232)" display="inline" fill="#E8E617" width="0.981" height="4.91"/>
	
		<rect x="33.857" y="14.387" transform="matrix(0.1735 -0.9848 0.9848 0.1735 11.8022 47.7462)" display="inline" fill="#E8E617" width="0.982" height="4.909"/>
	
		<rect x="33.906" y="18.478" transform="matrix(-0.174 -0.9847 0.9847 -0.174 19.7676 58.447)" display="inline" fill="#E8E617" width="0.982" height="4.909"/>
	
		<rect x="35.35" y="22.306" transform="matrix(-0.5001 -0.866 0.866 -0.5001 32.3233 68.181)" display="inline" fill="#E8E617" width="0.982" height="4.91"/>
	
		<rect x="38.017" y="25.409" transform="matrix(-0.766 -0.6428 0.6428 -0.766 50.0951 73.9614)" display="inline" fill="#E8E617" width="0.983" height="4.909"/>
	
		<rect x="41.585" y="27.412" transform="matrix(-0.9398 -0.3416 0.3416 -0.9398 71.4166 72.3115)" display="inline" fill="#E8E617" width="0.982" height="4.91"/>
	<rect x="45.623" y="28.075" display="inline" fill="#E8E617" width="0.981" height="4.91"/>
	
		<rect x="49.644" y="27.317" transform="matrix(-0.9397 0.3419 -0.3419 -0.9397 107.4266 40.6048)" display="inline" fill="#E8E617" width="0.981" height="4.909"/>
	
		<rect x="53.163" y="25.229" transform="matrix(-0.7661 0.6427 -0.6427 -0.7661 112.5497 14.4071)" display="inline" fill="#E8E617" width="0.982" height="4.909"/>
	
		<rect x="55.755" y="22.063" transform="matrix(-0.5003 0.8658 -0.8658 -0.5003 105.6145 -11.9157)" display="inline" fill="#E8E617" width="0.982" height="4.909"/>
	
		<rect x="57.108" y="18.202" transform="matrix(-0.173 0.9849 -0.9849 -0.173 87.9106 -32.4991)" display="inline" fill="#E8E617" width="0.982" height="4.91"/>
	
		<rect x="57.06" y="14.111" transform="matrix(0.1741 0.9847 -0.9847 0.1741 63.8457 -42.9901)" display="inline" fill="#E8E617" width="0.982" height="4.91"/>
	
		<rect x="55.615" y="10.283" transform="matrix(0.5001 0.866 -0.866 0.5001 39.0782 -42.2184)" display="inline" fill="#E8E617" width="0.982" height="4.91"/>
	
		<rect x="52.947" y="7.181" transform="matrix(0.7661 0.6427 -0.6427 0.7661 18.6921 -32.0922)" display="inline" fill="#E8E617" width="0.982" height="4.909"/>
	
		<rect x="49.38" y="5.177" transform="matrix(0.9398 0.3416 -0.3416 0.9398 5.6074 -16.578)" display="inline" fill="#E8E617" width="0.982" height="4.91"/>
	<g display="inline">
		<path opacity="0.1" d="M64.034,55.073H8.517c0,0-7.52-1.097-7.905-8.783c0,0-2.69-11.401,10.89-13.451
			c0,0-5.381-16.015,12.171-22.548c0,0,14.733-4.356,21.908,11.018c0,0,6.405-4.741,13.707-0.128c0,0,6.406,4.355,4.356,12.684
			c0,0,8.199,1.153,8.456,11.018C72.101,44.881,72.878,51.686,64.034,55.073z"/>
		<path fill="#FFFFFF" d="M63.639,53.887H8.122c0,0-7.521-1.097-7.905-8.784c0,0-2.69-11.401,10.89-13.45
			c0,0-5.381-16.015,12.171-22.549c0,0,14.733-4.356,21.907,11.018c0,0,6.406-4.74,13.709-0.128c0,0,6.405,4.355,4.355,12.684
			c0,0,8.199,1.153,8.455,11.018C71.704,43.694,72.482,50.499,63.639,53.887z"/>
	</g>
</g>
<g id="Day_-_Cloudy" display="none">
	<circle display="inline" fill="#F1E912" cx="46.027" cy="18.803" r="7.785"/>
	<rect x="45.343" y="4.515" display="inline" fill="#E8E617" width="0.981" height="4.909"/>
	
		<rect x="41.322" y="5.273" transform="matrix(0.94 -0.3412 0.3412 0.94 -0.1277 14.7294)" display="inline" fill="#E8E617" width="0.982" height="4.909"/>
	
		<rect x="37.802" y="7.36" transform="matrix(0.766 -0.6428 0.6428 0.766 2.6507 26.9127)" display="inline" fill="#E8E617" width="0.983" height="4.909"/>
	
		<rect x="35.211" y="10.526" transform="matrix(0.4996 -0.8663 0.8663 0.4996 6.621 37.4232)" display="inline" fill="#E8E617" width="0.981" height="4.91"/>
	
		<rect x="33.857" y="14.387" transform="matrix(0.1735 -0.9848 0.9848 0.1735 11.8022 47.7462)" display="inline" fill="#E8E617" width="0.982" height="4.909"/>
	
		<rect x="33.906" y="18.478" transform="matrix(-0.174 -0.9847 0.9847 -0.174 19.7676 58.447)" display="inline" fill="#E8E617" width="0.982" height="4.909"/>
	
		<rect x="35.35" y="22.306" transform="matrix(-0.5001 -0.866 0.866 -0.5001 32.3233 68.181)" display="inline" fill="#E8E617" width="0.982" height="4.91"/>
	
		<rect x="38.017" y="25.409" transform="matrix(-0.766 -0.6428 0.6428 -0.766 50.0951 73.9614)" display="inline" fill="#E8E617" width="0.983" height="4.909"/>
	
		<rect x="41.585" y="27.412" transform="matrix(-0.9398 -0.3416 0.3416 -0.9398 71.4166 72.3115)" display="inline" fill="#E8E617" width="0.982" height="4.91"/>
	<rect x="45.623" y="28.075" display="inline" fill="#E8E617" width="0.981" height="4.91"/>
	
		<rect x="49.644" y="27.317" transform="matrix(-0.9397 0.3419 -0.3419 -0.9397 107.4266 40.6048)" display="inline" fill="#E8E617" width="0.981" height="4.909"/>
	
		<rect x="53.163" y="25.229" transform="matrix(-0.7661 0.6427 -0.6427 -0.7661 112.5497 14.4071)" display="inline" fill="#E8E617" width="0.982" height="4.909"/>
	
		<rect x="55.755" y="22.063" transform="matrix(-0.5003 0.8658 -0.8658 -0.5003 105.6145 -11.9157)" display="inline" fill="#E8E617" width="0.982" height="4.909"/>
	
		<rect x="57.108" y="18.202" transform="matrix(-0.173 0.9849 -0.9849 -0.173 87.9106 -32.4991)" display="inline" fill="#E8E617" width="0.982" height="4.91"/>
	
		<rect x="57.06" y="14.111" transform="matrix(0.1741 0.9847 -0.9847 0.1741 63.8457 -42.9901)" display="inline" fill="#E8E617" width="0.982" height="4.91"/>
	
		<rect x="55.615" y="10.283" transform="matrix(0.5001 0.866 -0.866 0.5001 39.0782 -42.2184)" display="inline" fill="#E8E617" width="0.982" height="4.91"/>
	
		<rect x="52.947" y="7.181" transform="matrix(0.7661 0.6427 -0.6427 0.7661 18.6921 -32.0922)" display="inline" fill="#E8E617" width="0.982" height="4.909"/>
	
		<rect x="49.38" y="5.177" transform="matrix(0.9398 0.3416 -0.3416 0.9398 5.6074 -16.578)" display="inline" fill="#E8E617" width="0.982" height="4.91"/>
	<g display="inline">
		<path opacity="0.1" d="M64.034,55.073H8.517c0,0-7.52-1.097-7.905-8.783c0,0-2.69-11.401,10.89-13.451
			c0,0-5.381-16.015,12.171-22.548c0,0,14.733-4.356,21.908,11.018c0,0,6.405-4.741,13.707-0.128c0,0,6.406,4.355,4.356,12.684
			c0,0,8.199,1.153,8.456,11.018C72.101,44.881,72.878,51.686,64.034,55.073z"/>
		<path fill="#FFFFFF" d="M63.639,53.887H8.122c0,0-7.521-1.097-7.905-8.784c0,0-2.69-11.401,10.89-13.45
			c0,0-5.381-16.015,12.171-22.549c0,0,14.733-4.356,21.907,11.018c0,0,6.406-4.74,13.709-0.128c0,0,6.405,4.355,4.355,12.684
			c0,0,8.199,1.153,8.455,11.018C71.704,43.694,72.482,50.499,63.639,53.887z"/>
	</g>
	<g display="inline">
		<path opacity="0.1" d="M11.186,53.071h49.253c0,0,6.672-0.973,7.014-7.792c0,0,2.387-10.116-9.662-11.934
			c0,0,4.773-14.208-10.797-20.005c0,0-13.071-3.865-19.437,9.775c0,0-5.683-4.206-12.161-0.114c0,0-5.684,3.864-3.865,11.253
			c0,0-7.274,1.023-7.502,9.774C4.029,44.028,3.34,50.065,11.186,53.071z"/>
		<path fill="#FFFFFF" d="M11.537,52.019h49.254c0,0,6.672-0.973,7.014-7.793c0,0,2.385-10.115-9.662-11.933
			c0,0,4.773-14.208-10.797-20.005c0,0-13.071-3.864-19.437,9.775c0,0-5.684-4.206-12.163-0.113c0,0-5.683,3.864-3.864,11.252
			c0,0-7.274,1.023-7.501,9.775C4.381,42.976,3.69,49.013,11.537,52.019z"/>
	</g>
</g>
<g id="Day_-_Rain" display="none">
	
		<rect x="23.243" y="57.088" transform="matrix(0.7753 -0.6316 0.6316 0.7753 -32.8268 28.9316)" display="inline" fill="#344B85" width="2.005" height="7.021"/>
	
		<rect x="34.251" y="59.09" transform="matrix(0.7753 -0.6316 0.6316 0.7753 -31.6174 36.3348)" display="inline" fill="#344B85" width="2.005" height="7.021"/>
	
		<rect x="45.261" y="57.088" transform="matrix(0.7753 -0.6316 0.6316 0.7753 -27.8789 42.8385)" display="inline" fill="#344B85" width="2.005" height="7.02"/>
	<circle display="inline" fill="#F1E912" cx="46.027" cy="18.803" r="7.785"/>
	<rect x="45.343" y="4.515" display="inline" fill="#E8E617" width="0.981" height="4.909"/>
	
		<rect x="41.322" y="5.273" transform="matrix(0.94 -0.3412 0.3412 0.94 -0.1277 14.7294)" display="inline" fill="#E8E617" width="0.982" height="4.909"/>
	
		<rect x="37.802" y="7.36" transform="matrix(0.766 -0.6428 0.6428 0.766 2.6507 26.9127)" display="inline" fill="#E8E617" width="0.983" height="4.909"/>
	
		<rect x="35.211" y="10.526" transform="matrix(0.4996 -0.8663 0.8663 0.4996 6.621 37.4232)" display="inline" fill="#E8E617" width="0.981" height="4.91"/>
	
		<rect x="33.857" y="14.387" transform="matrix(0.1735 -0.9848 0.9848 0.1735 11.8022 47.7462)" display="inline" fill="#E8E617" width="0.982" height="4.909"/>
	
		<rect x="33.906" y="18.478" transform="matrix(-0.174 -0.9847 0.9847 -0.174 19.7676 58.447)" display="inline" fill="#E8E617" width="0.982" height="4.909"/>
	
		<rect x="35.35" y="22.306" transform="matrix(-0.5001 -0.866 0.866 -0.5001 32.3233 68.181)" display="inline" fill="#E8E617" width="0.982" height="4.91"/>
	
		<rect x="38.017" y="25.409" transform="matrix(-0.766 -0.6428 0.6428 -0.766 50.0951 73.9614)" display="inline" fill="#E8E617" width="0.983" height="4.909"/>
	
		<rect x="41.585" y="27.412" transform="matrix(-0.9398 -0.3416 0.3416 -0.9398 71.4166 72.3115)" display="inline" fill="#E8E617" width="0.982" height="4.91"/>
	<rect x="45.623" y="28.075" display="inline" fill="#E8E617" width="0.981" height="4.91"/>
	
		<rect x="49.644" y="27.317" transform="matrix(-0.9397 0.3419 -0.3419 -0.9397 107.4266 40.6048)" display="inline" fill="#E8E617" width="0.981" height="4.909"/>
	
		<rect x="53.163" y="25.229" transform="matrix(-0.7661 0.6427 -0.6427 -0.7661 112.5497 14.4071)" display="inline" fill="#E8E617" width="0.982" height="4.909"/>
	
		<rect x="55.755" y="22.063" transform="matrix(-0.5003 0.8658 -0.8658 -0.5003 105.6145 -11.9157)" display="inline" fill="#E8E617" width="0.982" height="4.909"/>
	
		<rect x="57.108" y="18.202" transform="matrix(-0.173 0.9849 -0.9849 -0.173 87.9106 -32.4991)" display="inline" fill="#E8E617" width="0.982" height="4.91"/>
	
		<rect x="57.06" y="14.111" transform="matrix(0.1741 0.9847 -0.9847 0.1741 63.8457 -42.9901)" display="inline" fill="#E8E617" width="0.982" height="4.91"/>
	
		<rect x="55.615" y="10.283" transform="matrix(0.5001 0.866 -0.866 0.5001 39.0782 -42.2184)" display="inline" fill="#E8E617" width="0.982" height="4.91"/>
	
		<rect x="52.947" y="7.181" transform="matrix(0.7661 0.6427 -0.6427 0.7661 18.6921 -32.0922)" display="inline" fill="#E8E617" width="0.982" height="4.909"/>
	
		<rect x="49.38" y="5.177" transform="matrix(0.9398 0.3416 -0.3416 0.9398 5.6074 -16.578)" display="inline" fill="#E8E617" width="0.982" height="4.91"/>
	<g display="inline">
		<path opacity="0.1" d="M64.034,55.073H8.517c0,0-7.52-1.097-7.905-8.783c0,0-2.69-11.401,10.89-13.451
			c0,0-5.381-16.015,12.171-22.548c0,0,14.733-4.356,21.908,11.018c0,0,6.405-4.741,13.707-0.128c0,0,6.406,4.355,4.356,12.684
			c0,0,8.199,1.153,8.456,11.018C72.101,44.881,72.878,51.686,64.034,55.073z"/>
		<path fill="#FFFFFF" d="M63.639,53.887H8.122c0,0-7.521-1.097-7.905-8.784c0,0-2.69-11.401,10.89-13.45
			c0,0-5.381-16.015,12.171-22.549c0,0,14.733-4.356,21.907,11.018c0,0,6.406-4.74,13.709-0.128c0,0,6.405,4.355,4.355,12.684
			c0,0,8.199,1.153,8.455,11.018C71.704,43.694,72.482,50.499,63.639,53.887z"/>
	</g>
	<g display="inline">
		<path opacity="0.1" d="M11.186,53.071h49.253c0,0,6.672-0.973,7.014-7.792c0,0,2.387-10.116-9.662-11.934
			c0,0,4.773-14.208-10.797-20.005c0,0-13.071-3.865-19.437,9.775c0,0-5.683-4.206-12.161-0.114c0,0-5.684,3.864-3.865,11.253
			c0,0-7.274,1.023-7.502,9.774C4.029,44.028,3.34,50.065,11.186,53.071z"/>
		<path fill="#FFFFFF" d="M11.537,52.019h49.254c0,0,6.672-0.973,7.014-7.793c0,0,2.385-10.115-9.662-11.933
			c0,0,4.773-14.208-10.797-20.005c0,0-13.071-3.864-19.437,9.775c0,0-5.684-4.206-12.163-0.113c0,0-5.683,3.864-3.864,11.252
			c0,0-7.274,1.023-7.501,9.775C4.381,42.976,3.69,49.013,11.537,52.019z"/>
	</g>
</g>
<g id="Day_-_Snow" display="none">
	<circle display="inline" fill="#F1E912" cx="46.027" cy="18.803" r="7.785"/>
	<rect x="45.343" y="4.515" display="inline" fill="#E8E617" width="0.981" height="4.909"/>
	
		<rect x="41.322" y="5.273" transform="matrix(0.94 -0.3412 0.3412 0.94 -0.1277 14.7294)" display="inline" fill="#E8E617" width="0.982" height="4.909"/>
	
		<rect x="37.802" y="7.36" transform="matrix(0.766 -0.6428 0.6428 0.766 2.6507 26.9127)" display="inline" fill="#E8E617" width="0.983" height="4.909"/>
	
		<rect x="35.211" y="10.526" transform="matrix(0.4996 -0.8663 0.8663 0.4996 6.621 37.4232)" display="inline" fill="#E8E617" width="0.981" height="4.91"/>
	
		<rect x="33.857" y="14.387" transform="matrix(0.1735 -0.9848 0.9848 0.1735 11.8022 47.7462)" display="inline" fill="#E8E617" width="0.982" height="4.909"/>
	
		<rect x="33.906" y="18.478" transform="matrix(-0.174 -0.9847 0.9847 -0.174 19.7676 58.447)" display="inline" fill="#E8E617" width="0.982" height="4.909"/>
	
		<rect x="35.35" y="22.306" transform="matrix(-0.5001 -0.866 0.866 -0.5001 32.3233 68.181)" display="inline" fill="#E8E617" width="0.982" height="4.91"/>
	
		<rect x="38.017" y="25.409" transform="matrix(-0.766 -0.6428 0.6428 -0.766 50.0951 73.9614)" display="inline" fill="#E8E617" width="0.983" height="4.909"/>
	
		<rect x="41.585" y="27.412" transform="matrix(-0.9398 -0.3416 0.3416 -0.9398 71.4166 72.3115)" display="inline" fill="#E8E617" width="0.982" height="4.91"/>
	<rect x="45.623" y="28.075" display="inline" fill="#E8E617" width="0.981" height="4.91"/>
	
		<rect x="49.644" y="27.317" transform="matrix(-0.9397 0.3419 -0.3419 -0.9397 107.4266 40.6048)" display="inline" fill="#E8E617" width="0.981" height="4.909"/>
	
		<rect x="53.163" y="25.229" transform="matrix(-0.7661 0.6427 -0.6427 -0.7661 112.5497 14.4071)" display="inline" fill="#E8E617" width="0.982" height="4.909"/>
	
		<rect x="55.755" y="22.063" transform="matrix(-0.5003 0.8658 -0.8658 -0.5003 105.6145 -11.9157)" display="inline" fill="#E8E617" width="0.982" height="4.909"/>
	
		<rect x="57.108" y="18.202" transform="matrix(-0.173 0.9849 -0.9849 -0.173 87.9106 -32.4991)" display="inline" fill="#E8E617" width="0.982" height="4.91"/>
	
		<rect x="57.06" y="14.111" transform="matrix(0.1741 0.9847 -0.9847 0.1741 63.8457 -42.9901)" display="inline" fill="#E8E617" width="0.982" height="4.91"/>
	
		<rect x="55.615" y="10.283" transform="matrix(0.5001 0.866 -0.866 0.5001 39.0782 -42.2184)" display="inline" fill="#E8E617" width="0.982" height="4.91"/>
	
		<rect x="52.947" y="7.181" transform="matrix(0.7661 0.6427 -0.6427 0.7661 18.6921 -32.0922)" display="inline" fill="#E8E617" width="0.982" height="4.909"/>
	
		<rect x="49.38" y="5.177" transform="matrix(0.9398 0.3416 -0.3416 0.9398 5.6074 -16.578)" display="inline" fill="#E8E617" width="0.982" height="4.91"/>
	<g display="inline">
		<path opacity="0.1" d="M64.034,55.073H8.517c0,0-7.52-1.097-7.905-8.783c0,0-2.69-11.401,10.89-13.451
			c0,0-5.381-16.015,12.171-22.548c0,0,14.733-4.356,21.908,11.018c0,0,6.405-4.741,13.707-0.128c0,0,6.406,4.355,4.356,12.684
			c0,0,8.199,1.153,8.456,11.018C72.101,44.881,72.878,51.686,64.034,55.073z"/>
		<path fill="#FFFFFF" d="M63.639,53.887H8.122c0,0-7.521-1.097-7.905-8.784c0,0-2.69-11.401,10.89-13.45
			c0,0-5.381-16.015,12.171-22.549c0,0,14.733-4.356,21.907,11.018c0,0,6.406-4.74,13.709-0.128c0,0,6.405,4.355,4.355,12.684
			c0,0,8.199,1.153,8.455,11.018C71.704,43.694,72.482,50.499,63.639,53.887z"/>
	</g>
	<g display="inline">
		<path opacity="0.1" d="M11.186,53.071h49.253c0,0,6.672-0.973,7.014-7.792c0,0,2.387-10.116-9.662-11.934
			c0,0,4.773-14.208-10.797-20.005c0,0-13.071-3.865-19.437,9.775c0,0-5.683-4.206-12.161-0.114c0,0-5.684,3.864-3.865,11.253
			c0,0-7.274,1.023-7.502,9.774C4.029,44.028,3.34,50.065,11.186,53.071z"/>
		<path fill="#FFFFFF" d="M11.537,52.019h49.254c0,0,6.672-0.973,7.014-7.793c0,0,2.385-10.115-9.662-11.933
			c0,0,4.773-14.208-10.797-20.005c0,0-13.071-3.864-19.437,9.775c0,0-5.684-4.206-12.163-0.113c0,0-5.683,3.864-3.864,11.252
			c0,0-7.274,1.023-7.501,9.775C4.381,42.976,3.69,49.013,11.537,52.019z"/>
	</g>
	<g display="inline">
		<circle fill="#E4E6ED" cx="24.189" cy="60.172" r="3.303"/>
		<path opacity="0.3" fill="#C7CADC" d="M25.606,57.433c0.711,0.552,1.169,1.415,1.169,2.385c0,1.666-1.351,3.018-3.017,3.018
			c-0.541,0-1.048-0.143-1.487-0.392c0.51,0.396,1.151,0.631,1.847,0.631c1.667,0,3.017-1.351,3.017-3.016
			C27.136,58.933,26.52,57.95,25.606,57.433z"/>
	</g>
	<g display="inline">
		<circle fill="#E4E6ED" cx="36.199" cy="63.175" r="3.303"/>
		<path opacity="0.3" fill="#C7CADC" d="M37.616,60.436c0.711,0.552,1.169,1.415,1.169,2.385c0,1.666-1.351,3.018-3.017,3.018
			c-0.541,0-1.048-0.143-1.486-0.392c0.51,0.396,1.151,0.631,1.847,0.631c1.667,0,3.018-1.351,3.018-3.016
			C39.146,61.936,38.529,60.953,37.616,60.436z"/>
	</g>
	<g display="inline">
		<circle fill="#E4E6ED" cx="48.209" cy="61.173" r="3.303"/>
		<path opacity="0.3" fill="#C7CADC" d="M49.626,58.434c0.711,0.552,1.169,1.415,1.169,2.385c0,1.666-1.351,3.018-3.017,3.018
			c-0.541,0-1.048-0.143-1.486-0.392c0.51,0.396,1.151,0.631,1.847,0.631c1.667,0,3.018-1.351,3.018-3.016
			C51.156,59.934,50.539,58.951,49.626,58.434z"/>
	</g>
</g>
<g id="Day_-_Fog" display="none">
	<circle display="inline" fill="#F1E912" cx="46.027" cy="18.803" r="7.785"/>
	
		<rect x="41.322" y="5.273" transform="matrix(0.94 -0.3412 0.3412 0.94 -0.1277 14.7294)" display="inline" fill="#E8E617" width="0.982" height="4.909"/>
	
		<rect x="37.802" y="7.36" transform="matrix(0.766 -0.6428 0.6428 0.766 2.6507 26.9127)" display="inline" fill="#E8E617" width="0.983" height="4.909"/>
	
		<rect x="35.211" y="10.526" transform="matrix(0.4996 -0.8663 0.8663 0.4996 6.621 37.4232)" display="inline" fill="#E8E617" width="0.981" height="4.91"/>
	
		<rect x="33.857" y="14.387" transform="matrix(0.1735 -0.9848 0.9848 0.1735 11.8022 47.7462)" display="inline" fill="#E8E617" width="0.982" height="4.909"/>
	
		<rect x="33.906" y="18.478" transform="matrix(-0.174 -0.9847 0.9847 -0.174 19.7676 58.447)" display="inline" fill="#E8E617" width="0.982" height="4.909"/>
	
		<rect x="35.35" y="22.306" transform="matrix(-0.5001 -0.866 0.866 -0.5001 32.3233 68.181)" display="inline" fill="#E8E617" width="0.982" height="4.91"/>
	
		<rect x="38.017" y="25.409" transform="matrix(-0.766 -0.6428 0.6428 -0.766 50.0951 73.9614)" display="inline" fill="#E8E617" width="0.983" height="4.909"/>
	
		<rect x="41.585" y="27.412" transform="matrix(-0.9398 -0.3416 0.3416 -0.9398 71.4166 72.3115)" display="inline" fill="#E8E617" width="0.982" height="4.91"/>
	<rect x="45.623" y="28.075" display="inline" fill="#E8E617" width="0.981" height="4.91"/>
	
		<rect x="49.644" y="27.317" transform="matrix(-0.9397 0.3419 -0.3419 -0.9397 107.4266 40.6048)" display="inline" fill="#E8E617" width="0.981" height="4.909"/>
	
		<rect x="53.163" y="25.229" transform="matrix(-0.7661 0.6427 -0.6427 -0.7661 112.5497 14.4071)" display="inline" fill="#E8E617" width="0.982" height="4.909"/>
	
		<rect x="55.755" y="22.063" transform="matrix(-0.5003 0.8658 -0.8658 -0.5003 105.6145 -11.9157)" display="inline" fill="#E8E617" width="0.982" height="4.909"/>
	
		<rect x="57.108" y="18.202" transform="matrix(-0.173 0.9849 -0.9849 -0.173 87.9106 -32.4991)" display="inline" fill="#E8E617" width="0.982" height="4.91"/>
	
		<rect x="57.06" y="14.111" transform="matrix(0.1741 0.9847 -0.9847 0.1741 63.8457 -42.9901)" display="inline" fill="#E8E617" width="0.982" height="4.91"/>
	
		<rect x="55.615" y="10.283" transform="matrix(0.5001 0.866 -0.866 0.5001 39.0782 -42.2184)" display="inline" fill="#E8E617" width="0.982" height="4.91"/>
	
		<rect x="52.947" y="7.181" transform="matrix(0.7661 0.6427 -0.6427 0.7661 18.6921 -32.0922)" display="inline" fill="#E8E617" width="0.982" height="4.909"/>
	
		<rect x="49.38" y="5.177" transform="matrix(0.9398 0.3416 -0.3416 0.9398 5.6074 -16.578)" display="inline" fill="#E8E617" width="0.982" height="4.91"/>
	<rect x="45.343" y="4.515" display="inline" fill="#E8E617" width="0.981" height="4.909"/>
	<path display="inline" opacity="0.3" fill="#FFFFFF" d="M5.009,33.07c0,0,16.117-15.056,19.356-7.575
		c0.062,0.142,1.092,0.041,1.458-0.046c0,0,0.677,0.079,6.927-1.501c0,0,7.25-6.856,12.635-2.334
		c0.474,0.398,5.865,1.542,5.865,1.542s6.25-0.791,15.131,10.998c0,0,2.869,0.074,3.617,1.635c0.098,0.204-0.125,7.213-0.248,7.402
		c-4.623,7.116-6.5,7.118-14.5,8.699c0,0-10.5,5.01-51.444-0.705C3.806,51.186-0.864,32.916,5.009,33.07z"/>
</g>
<g id="Day_-_Sleet" display="none">
	<circle display="inline" fill="#F1E912" cx="46.027" cy="18.803" r="7.785"/>
	<rect x="45.343" y="4.515" display="inline" fill="#E8E617" width="0.981" height="4.909"/>
	
		<rect x="41.322" y="5.273" transform="matrix(0.94 -0.3412 0.3412 0.94 -0.1277 14.7294)" display="inline" fill="#E8E617" width="0.982" height="4.909"/>
	
		<rect x="37.802" y="7.36" transform="matrix(0.766 -0.6428 0.6428 0.766 2.6507 26.9127)" display="inline" fill="#E8E617" width="0.983" height="4.909"/>
	
		<rect x="35.211" y="10.526" transform="matrix(0.4996 -0.8663 0.8663 0.4996 6.621 37.4232)" display="inline" fill="#E8E617" width="0.981" height="4.91"/>
	
		<rect x="33.857" y="14.387" transform="matrix(0.1735 -0.9848 0.9848 0.1735 11.8022 47.7462)" display="inline" fill="#E8E617" width="0.982" height="4.909"/>
	
		<rect x="33.906" y="18.478" transform="matrix(-0.174 -0.9847 0.9847 -0.174 19.7676 58.447)" display="inline" fill="#E8E617" width="0.982" height="4.909"/>
	
		<rect x="35.35" y="22.306" transform="matrix(-0.5001 -0.866 0.866 -0.5001 32.3233 68.181)" display="inline" fill="#E8E617" width="0.982" height="4.91"/>
	
		<rect x="38.017" y="25.409" transform="matrix(-0.766 -0.6428 0.6428 -0.766 50.0951 73.9614)" display="inline" fill="#E8E617" width="0.983" height="4.909"/>
	
		<rect x="41.585" y="27.412" transform="matrix(-0.9398 -0.3416 0.3416 -0.9398 71.4166 72.3115)" display="inline" fill="#E8E617" width="0.982" height="4.91"/>
	<rect x="45.623" y="28.075" display="inline" fill="#E8E617" width="0.981" height="4.91"/>
	
		<rect x="49.644" y="27.317" transform="matrix(-0.9397 0.3419 -0.3419 -0.9397 107.4266 40.6048)" display="inline" fill="#E8E617" width="0.981" height="4.909"/>
	
		<rect x="53.163" y="25.229" transform="matrix(-0.7661 0.6427 -0.6427 -0.7661 112.5497 14.4071)" display="inline" fill="#E8E617" width="0.982" height="4.909"/>
	
		<rect x="55.755" y="22.063" transform="matrix(-0.5003 0.8658 -0.8658 -0.5003 105.6145 -11.9157)" display="inline" fill="#E8E617" width="0.982" height="4.909"/>
	
		<rect x="57.108" y="18.202" transform="matrix(-0.173 0.9849 -0.9849 -0.173 87.9106 -32.4991)" display="inline" fill="#E8E617" width="0.982" height="4.91"/>
	
		<rect x="57.06" y="14.111" transform="matrix(0.1741 0.9847 -0.9847 0.1741 63.8457 -42.9901)" display="inline" fill="#E8E617" width="0.982" height="4.91"/>
	
		<rect x="55.615" y="10.283" transform="matrix(0.5001 0.866 -0.866 0.5001 39.0782 -42.2184)" display="inline" fill="#E8E617" width="0.982" height="4.91"/>
	
		<rect x="52.947" y="7.181" transform="matrix(0.7661 0.6427 -0.6427 0.7661 18.6921 -32.0922)" display="inline" fill="#E8E617" width="0.982" height="4.909"/>
	
		<rect x="49.38" y="5.177" transform="matrix(0.9398 0.3416 -0.3416 0.9398 5.6074 -16.578)" display="inline" fill="#E8E617" width="0.982" height="4.91"/>
	<g display="inline">
		<path opacity="0.1" d="M64.034,55.073H8.517c0,0-7.52-1.097-7.905-8.783c0,0-2.69-11.401,10.89-13.451
			c0,0-5.381-16.015,12.171-22.548c0,0,14.733-4.356,21.908,11.018c0,0,6.405-4.741,13.707-0.128c0,0,6.406,4.355,4.356,12.684
			c0,0,8.199,1.153,8.456,11.018C72.101,44.881,72.878,51.686,64.034,55.073z"/>
		<path fill="#FFFFFF" d="M63.639,53.887H8.122c0,0-7.521-1.097-7.905-8.784c0,0-2.69-11.401,10.89-13.45
			c0,0-5.381-16.015,12.171-22.549c0,0,14.733-4.356,21.907,11.018c0,0,6.406-4.74,13.709-0.128c0,0,6.405,4.355,4.355,12.684
			c0,0,8.199,1.153,8.455,11.018C71.704,43.694,72.482,50.499,63.639,53.887z"/>
	</g>
	<g display="inline">
		<path opacity="0.1" d="M11.186,53.071h49.253c0,0,6.672-0.973,7.014-7.792c0,0,2.387-10.116-9.662-11.934
			c0,0,4.773-14.208-10.797-20.005c0,0-13.071-3.865-19.437,9.775c0,0-5.683-4.206-12.161-0.114c0,0-5.684,3.864-3.865,11.253
			c0,0-7.274,1.023-7.502,9.774C4.029,44.028,3.34,50.065,11.186,53.071z"/>
		<path fill="#FFFFFF" d="M11.537,52.019h49.254c0,0,6.672-0.973,7.014-7.793c0,0,2.385-10.115-9.662-11.933
			c0,0,4.773-14.208-10.797-20.005c0,0-13.071-3.864-19.437,9.775c0,0-5.684-4.206-12.163-0.113c0,0-5.683,3.864-3.864,11.252
			c0,0-7.274,1.023-7.501,9.775C4.381,42.976,3.69,49.013,11.537,52.019z"/>
	</g>
	<g display="inline">
		<circle fill="#A9CED2" cx="24.751" cy="59.316" r="2.371"/>
		<path opacity="0.3" fill="#A9CED2" d="M24.903,57.108c0.626,0.16,1.174,0.599,1.45,1.237c0.475,1.098-0.03,2.372-1.128,2.848
			c-0.356,0.153-0.73,0.204-1.091,0.166c0.45,0.115,0.938,0.087,1.397-0.111c1.099-0.476,1.603-1.75,1.129-2.847
			C26.339,57.66,25.652,57.188,24.903,57.108z"/>
	</g>
	<g display="inline">
		<circle fill="#A9CED2" cx="34.759" cy="61.318" r="2.371"/>
		<path opacity="0.3" fill="#A9CED2" d="M34.911,59.11c0.626,0.16,1.174,0.599,1.45,1.237c0.475,1.098-0.03,2.372-1.128,2.848
			c-0.356,0.153-0.73,0.204-1.091,0.166c0.45,0.115,0.938,0.087,1.397-0.111c1.099-0.476,1.604-1.75,1.129-2.847
			C36.347,59.662,35.66,59.19,34.911,59.11z"/>
	</g>
	<g display="inline">
		<circle fill="#A9CED2" cx="44.767" cy="58.315" r="2.371"/>
		<path opacity="0.3" fill="#A9CED2" d="M44.919,56.107c0.626,0.16,1.174,0.599,1.45,1.237c0.475,1.098-0.029,2.372-1.128,2.848
			c-0.355,0.153-0.73,0.204-1.091,0.166c0.449,0.115,0.938,0.087,1.396-0.111c1.099-0.476,1.604-1.75,1.129-2.847
			C46.354,56.659,45.668,56.188,44.919,56.107z"/>
	</g>
</g>
<g id="Day_-_Wind" display="none">
	<circle display="inline" fill="#F1E912" cx="46.027" cy="18.803" r="7.785"/>
	<rect x="45.343" y="4.515" display="inline" fill="#E8E617" width="0.981" height="4.909"/>
	
		<rect x="41.322" y="5.273" transform="matrix(0.94 -0.3412 0.3412 0.94 -0.1277 14.7294)" display="inline" fill="#E8E617" width="0.982" height="4.909"/>
	
		<rect x="37.802" y="7.36" transform="matrix(0.766 -0.6428 0.6428 0.766 2.6507 26.9127)" display="inline" fill="#E8E617" width="0.983" height="4.909"/>
	
		<rect x="35.211" y="10.526" transform="matrix(0.4996 -0.8663 0.8663 0.4996 6.621 37.4232)" display="inline" fill="#E8E617" width="0.981" height="4.91"/>
	
		<rect x="33.857" y="14.387" transform="matrix(0.1735 -0.9848 0.9848 0.1735 11.8022 47.7462)" display="inline" fill="#E8E617" width="0.982" height="4.909"/>
	
		<rect x="33.906" y="18.478" transform="matrix(-0.174 -0.9847 0.9847 -0.174 19.7676 58.447)" display="inline" fill="#E8E617" width="0.982" height="4.909"/>
	
		<rect x="35.35" y="22.306" transform="matrix(-0.5001 -0.866 0.866 -0.5001 32.3233 68.181)" display="inline" fill="#E8E617" width="0.982" height="4.91"/>
	
		<rect x="38.017" y="25.409" transform="matrix(-0.766 -0.6428 0.6428 -0.766 50.0951 73.9614)" display="inline" fill="#E8E617" width="0.983" height="4.909"/>
	
		<rect x="41.585" y="27.412" transform="matrix(-0.9398 -0.3416 0.3416 -0.9398 71.4166 72.3115)" display="inline" fill="#E8E617" width="0.982" height="4.91"/>
	<rect x="45.623" y="28.075" display="inline" fill="#E8E617" width="0.981" height="4.91"/>
	
		<rect x="49.644" y="27.317" transform="matrix(-0.9397 0.3419 -0.3419 -0.9397 107.4266 40.6048)" display="inline" fill="#E8E617" width="0.981" height="4.909"/>
	
		<rect x="53.163" y="25.229" transform="matrix(-0.7661 0.6427 -0.6427 -0.7661 112.5497 14.4071)" display="inline" fill="#E8E617" width="0.982" height="4.909"/>
	
		<rect x="55.755" y="22.063" transform="matrix(-0.5003 0.8658 -0.8658 -0.5003 105.6145 -11.9157)" display="inline" fill="#E8E617" width="0.982" height="4.909"/>
	
		<rect x="57.108" y="18.202" transform="matrix(-0.173 0.9849 -0.9849 -0.173 87.9106 -32.4991)" display="inline" fill="#E8E617" width="0.982" height="4.91"/>
	
		<rect x="57.06" y="14.111" transform="matrix(0.1741 0.9847 -0.9847 0.1741 63.8457 -42.9901)" display="inline" fill="#E8E617" width="0.982" height="4.91"/>
	
		<rect x="55.615" y="10.283" transform="matrix(0.5001 0.866 -0.866 0.5001 39.0782 -42.2184)" display="inline" fill="#E8E617" width="0.982" height="4.91"/>
	
		<rect x="52.947" y="7.181" transform="matrix(0.7661 0.6427 -0.6427 0.7661 18.6921 -32.0922)" display="inline" fill="#E8E617" width="0.982" height="4.909"/>
	
		<rect x="49.38" y="5.177" transform="matrix(0.9398 0.3416 -0.3416 0.9398 5.6074 -16.578)" display="inline" fill="#E8E617" width="0.982" height="4.91"/>
	<g display="inline">
		<path opacity="0.1" d="M29.725,52.823H6.415c0,0-3.157-0.461-3.318-3.688c0,0-1.13-4.786,4.572-5.646c0,0-2.259-6.724,5.109-9.467
			c0,0,6.186-1.829,9.198,4.626c0,0,2.689-1.991,5.755-0.054c0,0,2.689,1.829,1.829,5.325c0,0,3.442,0.484,3.55,4.626
			C33.11,48.544,33.438,51.401,29.725,52.823z"/>
		<path fill="#FFFFFF" d="M29.558,52.325H6.249c0,0-3.158-0.461-3.319-3.688c0,0-1.129-4.787,4.572-5.647
			c0,0-2.259-6.724,5.109-9.467c0,0,6.186-1.829,9.198,4.626c0,0,2.69-1.99,5.757-0.054c0,0,2.688,1.829,1.828,5.325
			c0,0,3.442,0.484,3.55,4.625C32.944,48.045,33.271,50.902,29.558,52.325z"/>
	</g>
	<g display="inline">
		<path opacity="0.1" d="M66.725,52.573h-23.31c0,0-3.157-0.461-3.318-3.688c0,0-1.13-4.786,4.572-5.646
			c0,0-2.259-6.724,5.109-9.467c0,0,6.187-1.829,9.198,4.626c0,0,2.689-1.991,5.755-0.054c0,0,2.689,1.829,1.829,5.325
			c0,0,3.442,0.484,3.55,4.626C70.11,48.294,70.438,51.151,66.725,52.573z"/>
		<path fill="#FFFFFF" d="M66.558,52.075H43.249c0,0-3.157-0.461-3.319-3.688c0,0-1.129-4.787,4.572-5.647
			c0,0-2.259-6.724,5.109-9.467c0,0,6.187-1.829,9.198,4.626c0,0,2.69-1.99,5.757-0.054c0,0,2.688,1.829,1.828,5.325
			c0,0,3.442,0.484,3.55,4.625C69.944,47.795,70.271,50.652,66.558,52.075z"/>
	</g>
	<g display="inline">
		<path opacity="0.1" d="M44.975,34.073h-23.31c0,0-3.157-0.461-3.318-3.688c0,0-1.13-4.786,4.572-5.646
			c0,0-2.259-6.724,5.109-9.467c0,0,6.187-1.829,9.198,4.626c0,0,2.689-1.991,5.755-0.054c0,0,2.689,1.829,1.829,5.325
			c0,0,3.442,0.484,3.55,4.626C48.36,29.794,48.688,32.651,44.975,34.073z"/>
		<path fill="#FFFFFF" d="M44.808,33.575H21.499c0,0-3.157-0.461-3.319-3.688c0,0-1.129-4.787,4.572-5.647
			c0,0-2.259-6.724,5.109-9.467c0,0,6.187-1.829,9.198,4.626c0,0,2.69-1.99,5.757-0.054c0,0,2.688,1.829,1.828,5.325
			c0,0,3.442,0.484,3.55,4.625C48.194,29.295,48.521,32.152,44.808,33.575z"/>
	</g>
</g>
<g id="Ruler">
</g>
</svg>
